<?xml version="1.0" encoding="UTF-8"?>
<svg width="400" height="600" viewBox="0 0 400 600" xmlns="http://www.w3.org/2000/svg">
  <defs>
    <!-- Paper texture filter -->
    <filter id="paperTexture">
      <feTurbulence type="fractalNoise" baseFrequency="0.04" numOctaves="5" result="noise" seed="5"/>
      <feDiffuseLighting in="noise" lighting-color="white" surfaceScale="1">
        <feDistantLight azimuth="45" elevation="60"/>
      </feDiffuseLighting>
    </filter>
    
    <!-- Vintage paper aging effect -->
    <filter id="vintagePaper">
      <feGaussianBlur in="SourceGraphic" stdDeviation="0.5"/>
      <feComponentTransfer>
        <feFuncA type="discrete" tableValues="0 .5 .5 .5 .5 .5 .5 .5 .5 .5 .5 .5 .5 .5 1"/>
      </feComponentTransfer>
    </filter>
    
    <!-- Drop shadow -->
    <filter id="shadow">
      <feDropShadow dx="2" dy="2" stdDeviation="3" flood-opacity="0.3"/>
    </filter>
    
    <!-- Text glow -->
    <filter id="textGlow">
      <feGaussianBlur stdDeviation="2" result="coloredBlur"/>
      <feMerge>
        <feMergeNode in="coloredBlur"/>
        <feMergeNode in="SourceGraphic"/>
      </feMerge>
    </filter>
  </defs>
  
  <!-- Vintage paper background -->
  <rect width="400" height="600" fill="#F5E6D3"/>
  <rect width="400" height="600" fill="#F5E6D3" filter="url(#paperTexture)" opacity="0.3"/>
  
  <!-- Decorative vintage border -->
  <g opacity="0.4">
    <!-- Top border with ornate pattern -->
    <path d="M10,10 Q15,5 20,10 Q15,15 10,10" fill="#8B7355"/><path d="M30,10 Q35,5 40,10 Q35,15 30,10" fill="#8B7355"/><path d="M50,10 Q55,5 60,10 Q55,15 50,10" fill="#8B7355"/><path d="M70,10 Q75,5 80,10 Q75,15 70,10" fill="#8B7355"/><path d="M90,10 Q95,5 100,10 Q95,15 90,10" fill="#8B7355"/><path d="M110,10 Q115,5 120,10 Q115,15 110,10" fill="#8B7355"/><path d="M130,10 Q135,5 140,10 Q135,15 130,10" fill="#8B7355"/><path d="M150,10 Q155,5 160,10 Q155,15 150,10" fill="#8B7355"/><path d="M170,10 Q175,5 180,10 Q175,15 170,10" fill="#8B7355"/><path d="M190,10 Q195,5 200,10 Q195,15 190,10" fill="#8B7355"/><path d="M210,10 Q215,5 220,10 Q215,15 210,10" fill="#8B7355"/><path d="M230,10 Q235,5 240,10 Q235,15 230,10" fill="#8B7355"/><path d="M250,10 Q255,5 260,10 Q255,15 250,10" fill="#8B7355"/><path d="M270,10 Q275,5 280,10 Q275,15 270,10" fill="#8B7355"/><path d="M290,10 Q295,5 300,10 Q295,15 290,10" fill="#8B7355"/><path d="M310,10 Q315,5 320,10 Q315,15 310,10" fill="#8B7355"/><path d="M330,10 Q335,5 340,10 Q335,15 330,10" fill="#8B7355"/><path d="M350,10 Q355,5 360,10 Q355,15 350,10" fill="#8B7355"/><path d="M370,10 Q375,5 380,10 Q375,15 370,10" fill="#8B7355"/><path d="M390,10 Q395,5 400,10 Q395,15 390,10" fill="#8B7355"/>
    
    <!-- Bottom border -->
    <path d="M10,590 Q15,585 20,590 Q15,595 10,590" fill="#8B7355"/><path d="M30,590 Q35,585 40,590 Q35,595 30,590" fill="#8B7355"/><path d="M50,590 Q55,585 60,590 Q55,595 50,590" fill="#8B7355"/><path d="M70,590 Q75,585 80,590 Q75,595 70,590" fill="#8B7355"/><path d="M90,590 Q95,585 100,590 Q95,595 90,590" fill="#8B7355"/><path d="M110,590 Q115,585 120,590 Q115,595 110,590" fill="#8B7355"/><path d="M130,590 Q135,585 140,590 Q135,595 130,590" fill="#8B7355"/><path d="M150,590 Q155,585 160,590 Q155,595 150,590" fill="#8B7355"/><path d="M170,590 Q175,585 180,590 Q175,595 170,590" fill="#8B7355"/><path d="M190,590 Q195,585 200,590 Q195,595 190,590" fill="#8B7355"/><path d="M210,590 Q215,585 220,590 Q215,595 210,590" fill="#8B7355"/><path d="M230,590 Q235,585 240,590 Q235,595 230,590" fill="#8B7355"/><path d="M250,590 Q255,585 260,590 Q255,595 250,590" fill="#8B7355"/><path d="M270,590 Q275,585 280,590 Q275,595 270,590" fill="#8B7355"/><path d="M290,590 Q295,585 300,590 Q295,595 290,590" fill="#8B7355"/><path d="M310,590 Q315,585 320,590 Q315,595 310,590" fill="#8B7355"/><path d="M330,590 Q335,585 340,590 Q335,595 330,590" fill="#8B7355"/><path d="M350,590 Q355,585 360,590 Q355,595 350,590" fill="#8B7355"/><path d="M370,590 Q375,585 380,590 Q375,595 370,590" fill="#8B7355"/><path d="M390,590 Q395,585 400,590 Q395,595 390,590" fill="#8B7355"/>
    
    <!-- Side borders -->
    
        <path d="M10,10 Q5,15 10,20 Q15,15 10,10" fill="#8B7355"/>
        <path d="M390,10 Q385,15 390,20 Q395,15 390,10" fill="#8B7355"/>
      
        <path d="M10,30 Q5,35 10,40 Q15,35 10,30" fill="#8B7355"/>
        <path d="M390,30 Q385,35 390,40 Q395,35 390,30" fill="#8B7355"/>
      
        <path d="M10,50 Q5,55 10,60 Q15,55 10,50" fill="#8B7355"/>
        <path d="M390,50 Q385,55 390,60 Q395,55 390,50" fill="#8B7355"/>
      
        <path d="M10,70 Q5,75 10,80 Q15,75 10,70" fill="#8B7355"/>
        <path d="M390,70 Q385,75 390,80 Q395,75 390,70" fill="#8B7355"/>
      
        <path d="M10,90 Q5,95 10,100 Q15,95 10,90" fill="#8B7355"/>
        <path d="M390,90 Q385,95 390,100 Q395,95 390,90" fill="#8B7355"/>
      
        <path d="M10,110 Q5,115 10,120 Q15,115 10,110" fill="#8B7355"/>
        <path d="M390,110 Q385,115 390,120 Q395,115 390,110" fill="#8B7355"/>
      
        <path d="M10,130 Q5,135 10,140 Q15,135 10,130" fill="#8B7355"/>
        <path d="M390,130 Q385,135 390,140 Q395,135 390,130" fill="#8B7355"/>
      
        <path d="M10,150 Q5,155 10,160 Q15,155 10,150" fill="#8B7355"/>
        <path d="M390,150 Q385,155 390,160 Q395,155 390,150" fill="#8B7355"/>
      
        <path d="M10,170 Q5,175 10,180 Q15,175 10,170" fill="#8B7355"/>
        <path d="M390,170 Q385,175 390,180 Q395,175 390,170" fill="#8B7355"/>
      
        <path d="M10,190 Q5,195 10,200 Q15,195 10,190" fill="#8B7355"/>
        <path d="M390,190 Q385,195 390,200 Q395,195 390,190" fill="#8B7355"/>
      
        <path d="M10,210 Q5,215 10,220 Q15,215 10,210" fill="#8B7355"/>
        <path d="M390,210 Q385,215 390,220 Q395,215 390,210" fill="#8B7355"/>
      
        <path d="M10,230 Q5,235 10,240 Q15,235 10,230" fill="#8B7355"/>
        <path d="M390,230 Q385,235 390,240 Q395,235 390,230" fill="#8B7355"/>
      
        <path d="M10,250 Q5,255 10,260 Q15,255 10,250" fill="#8B7355"/>
        <path d="M390,250 Q385,255 390,260 Q395,255 390,250" fill="#8B7355"/>
      
        <path d="M10,270 Q5,275 10,280 Q15,275 10,270" fill="#8B7355"/>
        <path d="M390,270 Q385,275 390,280 Q395,275 390,270" fill="#8B7355"/>
      
        <path d="M10,290 Q5,295 10,300 Q15,295 10,290" fill="#8B7355"/>
        <path d="M390,290 Q385,295 390,300 Q395,295 390,290" fill="#8B7355"/>
      
        <path d="M10,310 Q5,315 10,320 Q15,315 10,310" fill="#8B7355"/>
        <path d="M390,310 Q385,315 390,320 Q395,315 390,310" fill="#8B7355"/>
      
        <path d="M10,330 Q5,335 10,340 Q15,335 10,330" fill="#8B7355"/>
        <path d="M390,330 Q385,335 390,340 Q395,335 390,330" fill="#8B7355"/>
      
        <path d="M10,350 Q5,355 10,360 Q15,355 10,350" fill="#8B7355"/>
        <path d="M390,350 Q385,355 390,360 Q395,355 390,350" fill="#8B7355"/>
      
        <path d="M10,370 Q5,375 10,380 Q15,375 10,370" fill="#8B7355"/>
        <path d="M390,370 Q385,375 390,380 Q395,375 390,370" fill="#8B7355"/>
      
        <path d="M10,390 Q5,395 10,400 Q15,395 10,390" fill="#8B7355"/>
        <path d="M390,390 Q385,395 390,400 Q395,395 390,390" fill="#8B7355"/>
      
        <path d="M10,410 Q5,415 10,420 Q15,415 10,410" fill="#8B7355"/>
        <path d="M390,410 Q385,415 390,420 Q395,415 390,410" fill="#8B7355"/>
      
        <path d="M10,430 Q5,435 10,440 Q15,435 10,430" fill="#8B7355"/>
        <path d="M390,430 Q385,435 390,440 Q395,435 390,430" fill="#8B7355"/>
      
        <path d="M10,450 Q5,455 10,460 Q15,455 10,450" fill="#8B7355"/>
        <path d="M390,450 Q385,455 390,460 Q395,455 390,450" fill="#8B7355"/>
      
        <path d="M10,470 Q5,475 10,480 Q15,475 10,470" fill="#8B7355"/>
        <path d="M390,470 Q385,475 390,480 Q395,475 390,470" fill="#8B7355"/>
      
        <path d="M10,490 Q5,495 10,500 Q15,495 10,490" fill="#8B7355"/>
        <path d="M390,490 Q385,495 390,500 Q395,495 390,490" fill="#8B7355"/>
      
        <path d="M10,510 Q5,515 10,520 Q15,515 10,510" fill="#8B7355"/>
        <path d="M390,510 Q385,515 390,520 Q395,515 390,510" fill="#8B7355"/>
      
        <path d="M10,530 Q5,535 10,540 Q15,535 10,530" fill="#8B7355"/>
        <path d="M390,530 Q385,535 390,540 Q395,535 390,530" fill="#8B7355"/>
      
        <path d="M10,550 Q5,555 10,560 Q15,555 10,550" fill="#8B7355"/>
        <path d="M390,550 Q385,555 390,560 Q395,555 390,550" fill="#8B7355"/>
      
        <path d="M10,570 Q5,575 10,580 Q15,575 10,570" fill="#8B7355"/>
        <path d="M390,570 Q385,575 390,580 Q395,575 390,570" fill="#8B7355"/>
      
        <path d="M10,590 Q5,595 10,600 Q15,595 10,590" fill="#8B7355"/>
        <path d="M390,590 Q385,595 390,600 Q395,595 390,590" fill="#8B7355"/>
      
  </g>
  
  <!-- Title in elegant typography -->
  <text x="200" y="80" font-family="Georgia, serif" font-size="36" font-weight="bold" fill="#2C3E50" text-anchor="middle" filter="url(#shadow)">
    Biograph of Charlie Ch...
  </text>
  
  <!-- Author subtitle -->
  <text x="200" y="110" font-family="Georgia, serif" font-size="18" fill="#5D4E37" text-anchor="middle">
    Unknown Author
  </text>
  
  <!-- Main illustration area with vintage frame -->
  <g>
    <clipPath id="vintageFrame">
      <rect x="50" y="150" width="300" height="250" rx="15" ry="15"/>
    </clipPath>
    
    <g clip-path="url(#vintageFrame)" filter="url(#vintagePaper)">
      
    <!-- Classic library setting -->
    <rect x="50" y="150" width="300" height="250" fill="#8B4513"/>
    
    <!-- Grand bookshelf -->
    <rect x="80" y="180" width="240" height="180" fill="#654321"/>
    
    <!-- Books on shelf with varied colors -->
    <rect x="90" y="192.9876195946896" width="13" height="37.01238040531041" fill="#8B0000"/><rect x="105" y="197.51690358273626" width="13" height="32.48309641726374" fill="#00008B"/><rect x="120" y="183.33270174109387" width="13" height="46.667298258906136" fill="#006400"/><rect x="135" y="196.4543583244896" width="13" height="33.54564167551042" fill="#FF8C00"/><rect x="150" y="191.18400207789762" width="13" height="38.81599792210237" fill="#4B0082"/><rect x="165" y="187.46566774518982" width="13" height="42.53433225481017" fill="#800080"/><rect x="180" y="186.42327668726006" width="13" height="43.576723312739944" fill="#2F4F4F"/><rect x="195" y="185.22930219155305" width="13" height="44.770697808446954" fill="#8B4513"/><rect x="210" y="191.88027747709964" width="13" height="38.11972252290036" fill="#8B0000"/><rect x="225" y="199.0146831573325" width="13" height="30.985316842667498" fill="#00008B"/><rect x="240" y="184.44214421958043" width="13" height="45.55785578041957" fill="#006400"/><rect x="255" y="184.42315566480758" width="13" height="45.57684433519242" fill="#FF8C00"/><rect x="270" y="185.25312724977053" width="13" height="44.746872750229464" fill="#4B0082"/><rect x="285" y="188.80440960706645" width="13" height="41.19559039293356" fill="#800080"/><rect x="300" y="181.63048542402623" width="13" height="48.36951457597377" fill="#2F4F4F"/>
    
    <rect x="90" y="268.8486792630244" width="13" height="41.15132073697559" fill="#DC143C"/><rect x="105" y="261.3519727143117" width="13" height="48.64802728568827" fill="#191970"/><rect x="120" y="270.04962415142774" width="13" height="39.95037584857226" fill="#2E8B57"/><rect x="135" y="265.6311937605182" width="13" height="44.36880623948178" fill="#FF6347"/><rect x="150" y="266.7814889408739" width="13" height="43.21851105912611" fill="#6A0DAD"/><rect x="165" y="264.4143823380315" width="13" height="45.58561766196853" fill="#C71585"/><rect x="180" y="264.8814900239456" width="13" height="45.11850997605438" fill="#708090"/><rect x="195" y="277.56756043206286" width="13" height="32.43243956793713" fill="#A0522D"/><rect x="210" y="272.21489730288835" width="13" height="37.78510269711166" fill="#DC143C"/><rect x="225" y="271.84906463311944" width="13" height="38.15093536688056" fill="#191970"/><rect x="240" y="265.6570297815125" width="13" height="44.342970218487466" fill="#2E8B57"/><rect x="255" y="260.6342502670974" width="13" height="49.3657497329026" fill="#FF6347"/><rect x="270" y="268.1529168056252" width="13" height="41.84708319437483" fill="#6A0DAD"/><rect x="285" y="261.11301763427593" width="13" height="48.88698236572407" fill="#C71585"/><rect x="300" y="279.5795932130572" width="13" height="30.420406786942817" fill="#708090"/>
    
    <!-- Reading lamp with warm glow -->
    <g transform="translate(200, 360)">
      <rect x="-5" y="0" width="10" height="30" fill="#FFD700"/>
      <path d="M-15,-10 L15,-10 L10,0 L-10,0 Z" fill="#F0E68C"/>
      <ellipse cx="0" cy="-5" rx="20" ry="5" fill="#FFFACD" opacity="0.5"/>
      <ellipse cx="0" cy="-5" rx="30" ry="8" fill="#FFFACD" opacity="0.2"/>
    </g>
    
    <!-- Open book on table -->
    <g transform="translate(150, 320)">
      <path d="M-30,-20 L0,-25 L30,-20 L30,20 L0,25 L-30,20 Z" fill="#F5F5DC"/>
      <path d="M0,-25 L0,25" stroke="#8B4513" stroke-width="1"/>
      
        <line x1="-25" y1="-20" x2="-25" y2="15" stroke="#8B4513" stroke-width="0.5" opacity="0.5"/>
        <line x1="5" y1="-20" x2="5" y2="15" stroke="#8B4513" stroke-width="0.5" opacity="0.5"/>
      
        <line x1="-22" y1="-18" x2="-22" y2="13" stroke="#8B4513" stroke-width="0.5" opacity="0.5"/>
        <line x1="8" y1="-18" x2="8" y2="13" stroke="#8B4513" stroke-width="0.5" opacity="0.5"/>
      
        <line x1="-19" y1="-16" x2="-19" y2="11" stroke="#8B4513" stroke-width="0.5" opacity="0.5"/>
        <line x1="11" y1="-16" x2="11" y2="11" stroke="#8B4513" stroke-width="0.5" opacity="0.5"/>
      
        <line x1="-16" y1="-14" x2="-16" y2="9" stroke="#8B4513" stroke-width="0.5" opacity="0.5"/>
        <line x1="14" y1="-14" x2="14" y2="9" stroke="#8B4513" stroke-width="0.5" opacity="0.5"/>
      
        <line x1="-13" y1="-12" x2="-13" y2="7" stroke="#8B4513" stroke-width="0.5" opacity="0.5"/>
        <line x1="17" y1="-12" x2="17" y2="7" stroke="#8B4513" stroke-width="0.5" opacity="0.5"/>
      
        <line x1="-10" y1="-10" x2="-10" y2="5" stroke="#8B4513" stroke-width="0.5" opacity="0.5"/>
        <line x1="20" y1="-10" x2="20" y2="5" stroke="#8B4513" stroke-width="0.5" opacity="0.5"/>
      
        <line x1="-7" y1="-8" x2="-7" y2="3" stroke="#8B4513" stroke-width="0.5" opacity="0.5"/>
        <line x1="23" y1="-8" x2="23" y2="3" stroke="#8B4513" stroke-width="0.5" opacity="0.5"/>
      
        <line x1="-4" y1="-6" x2="-4" y2="1" stroke="#8B4513" stroke-width="0.5" opacity="0.5"/>
        <line x1="26" y1="-6" x2="26" y2="1" stroke="#8B4513" stroke-width="0.5" opacity="0.5"/>
      
    </g>
    </g>
    
    <!-- Ornate frame around illustration -->
    <rect x="50" y="150" width="300" height="250" rx="15" ry="15" fill="none" stroke="#8B7355" stroke-width="4"/>
    
    <!-- Corner decorations -->
    <g opacity="0.6">
      <path d="M50,150 L70,150 L50,170 Z" fill="#8B7355"/>
      <path d="M350,150 L330,150 L350,170 Z" fill="#8B7355"/>
      <path d="M50,400 L70,400 L50,380 Z" fill="#8B7355"/>
      <path d="M350,400 L330,400 L350,380 Z" fill="#8B7355"/>
    </g>
  </g>
  
  <!-- Year badge -->
  <rect x="170" y="440" width="60" height="30" rx="15" ry="15" fill="#8B7355" opacity="0.3"/>
  <text x="200" y="460" font-family="Georgia, serif" font-size="20" font-weight="bold" fill="#5D4E37" text-anchor="middle">
    2018
  </text>
  
  <!-- Small decorative elements -->
  <g opacity="0.3">
    <circle cx="50" cy="50" r="3" fill="#8B7355"/>
    <circle cx="350" cy="50" r="3" fill="#8B7355"/>
    <circle cx="50" cy="550" r="3" fill="#8B7355"/>
    <circle cx="350" cy="550" r="3" fill="#8B7355"/>
    
    <!-- Small flourishes -->
    <path d="M30,100 Q40,100 40,110 Q40,120 30,120" fill="#8B7355"/>
    <path d="M370,100 Q360,100 360,110 Q360,120 370,120" fill="#8B7355"/>
    <path d="M30,480 Q40,480 40,490 Q40,500 30,500" fill="#8B7355"/>
    <path d="M370,480 Q360,480 360,490 Q360,500 370,500" fill="#8B7355"/>
  </g>
</svg>